<?xml version="1.0" encoding="UTF-8"?>
<svg id="Layer_2" data-name="Layer 2" xmlns="http://www.w3.org/2000/svg" viewBox="0 0 325.4 292.68">
  <defs>
    <style>
      .cls-1 {
        stroke-width: 3.03px;
      }

      .cls-1, .cls-2, .cls-3 {
        stroke: #000;
        stroke-miterlimit: 10;
      }

      .cls-2 {
        stroke-width: 4.17px;
      }

      .cls-2, .cls-3 {
        fill: #ab5d07;
      }

      .cls-4 {
        fill: #8e4300;
      }

      .cls-4, .cls-5 {
        stroke-width: 0px;
      }

      .cls-5 {
        fill: #ff931e;
      }

      .cls-3 {
        stroke-width: 7.15px;
      }
    </style>
  </defs>
  <g id="Capa_2" data-name="Capa 2">
    <path class="cls-3" d="M13.32,285.69s18.93-15.47,47.8-28.31c16.78-7.57,35.88-28.7,42.26-47.9,0,0,37.91-10.84,95.92-71.24C255.94,79.27,329,24.07,321.25,5.78c-7.75-18.28-120.12,81.78-182.25,120.56-22.29,12.79-58.14,59.14-58.14,59.14,0,0-58.59,14.26-75.73,80.1l12-4.08s-5.27,9.43-3.81,24.2Z"/>
    <path class="cls-2" d="M17.56,260.59s59.19-19.92,78.75-65.95l-4.65-6.42s-60.2,37.61-74.09,72.38Z"/>
    <path class="cls-1" d="M103.68,211.19s-4.94-16.93-23.23-24.85l29.23-33.3s24.3,9.68,30.89,38.34l-36.89,19.8Z"/>
    <path class="cls-4" d="M318.01,6.84l-186.21,162.24s5.72,6.88,8.54,16.11c34.83-23.48,54.72-49.17,78.01-71.2,61.36-58.06,109.49-100.51,99.66-107.14Z"/>
    <g>
      <path class="cls-5" d="M126.59,157.99l1.78-1.68,15.74,16.69-1.78,1.68-15.74-16.69Z"/>
      <path class="cls-5" d="M150.5,155.88c-2.67-2.83-4.82-3.39-7.11-1.23-1.72,1.63-2.63,4.82.4,8.02l5.31,5.62-1.62,1.52-10.61-11.25,1.62-1.52,2.11,2.23c-.92-2.64.3-4.91,1.75-6.28,3.2-3.02,6.45-2.22,9.78,1.3l5.56,5.89-1.64,1.55-5.54-5.87Z"/>
      <path class="cls-5" d="M150.24,137.87c-1.37,1.3-1.07,2.64.48,4.28l1.65,1.75,2.83-2.67,1.29,1.37-2.83,2.67,9.35,9.9-1.62,1.52-9.35-9.9-2.1,1.98-.92-1.73,1.7-1.6-1.65-1.75c-2.54-2.69-2.42-5.1-.34-7.05.73-.69,1.23-1.01,2.14-1.61l1.03,1.57c-.77.48-1.31.93-1.66,1.26Z"/>
      <path class="cls-5" d="M160.98,135.46c2.77-2.62,5.5-2.95,7-3.09l9.04,9.58-1.59,1.5-2.44-2.58c1.07,2.75-.08,5.31-1.58,6.73-3.39,3.2-7.53,2.37-10.63-.91-3.07-3.26-3.47-7.77.19-11.22ZM170.21,145.98c1.75-1.65,2.77-5.15-.89-9.03l-2.23-2.37c-1.29.09-2.95.65-4.67,2.27-2.69,2.54-2.26,5.85.07,8.33,2.31,2.45,5.22,3.16,7.72.8Z"/>
      <path class="cls-5" d="M183.01,125.21c-2.67-2.83-4.82-3.39-7.11-1.23-1.72,1.63-2.63,4.82.4,8.02l5.31,5.62-1.61,1.52-10.61-11.25,1.61-1.52,2.11,2.23c-.92-2.64.3-4.91,1.75-6.28,3.2-3.02,6.45-2.22,9.78,1.3l5.56,5.89-1.64,1.55-5.54-5.87Z"/>
      <path class="cls-5" d="M196.98,123.42c-2.5,2.26-4.69,1.98-7.64-1.14l-5.31-5.62-2.1,1.98-.92-1.73,1.72-1.63-2.29-2.42,1.26-1.9,2.64,2.8,3.26-3.07,1.29,1.37-3.26,3.07,5.33,5.65c2.64,2.8,3.94,2.29,6.24-.29l.97,1.73c-.4.43-.84.84-1.21,1.2Z"/>
      <path class="cls-5" d="M188.48,105.24c-.59.56-1.4.61-1.99,0s-.43-1.37.16-1.93,1.38-.64,1.96-.02.46,1.4-.14,1.96ZM189.98,108.45l1.61-1.52,10.61,11.25-1.61,1.52-10.61-11.25Z"/>
      <path class="cls-5" d="M189.72,98.68l1.31-1.85,15.92,16.87-1.61,1.52-15.62-16.55Z"/>
    </g>
  </g>
</svg>